:SAMPLES-PER-SECOND 30
:FULLY-SPECIFIED
:DEGREES
186
root  44.7301 19.2283 0.385966 -104.519 75.0634 -79.6743
RightUpLeg  -78.898 -5.57371 19.7123
RightLeg  98.1476 11.0565 0.668048
RightFoot  -22.0186 -0.0216791 -0.372987
RightToes  2.85217e-009 -3.18055e-015 8.94531e-016
Spine  64.1581 -2.77317 2.68265
Spine1  13.2787 0.831516 -2.56357
HEad  -21.8114 3.80935 9.28215
LeftShoulder1  0 -2.69403e-036 -1.28585e-037
LeftArm  -10.8766 -53.134 -63.5926
LeftForeArm  -137.138 -50.7298 168.056
LeftHand  0.736965 6.27311 11.2833
RightShoulder  -2.48481e-017 0 -8.08114e-019
RightArm  -0.590319 36.9299 67.3541
RightForeArm  -91.4107 47.3391 -153.27
RightHand  4.10301 -16.4838 -26.4423
LeftUpLeg  -54.1168 -1.51529 12.6178
LeftLeg  129.1 -13.3421 -1.5954
LeftFoot  -32.0206 -0.165056 -0.427143
LeftToes  -3.29237e-010 -4.9359e-011 -7.59376e-011
187
root  45.5472 18.2603 0.691503 -110.568 75.8531 -84.2063
RightUpLeg  -79.1236 -5.09247 17.267
RightLeg  97.3332 11.0735 0.479655
RightFoot  -22.7617 0.0273157 0.218723
RightToes  2.85217e-009 -3.18055e-015 8.94531e-016
Spine  64.0481 -2.71948 2.31113
Spine1  13.8531 0.476816 -2.02439
HEad  -22.2338 3.36648 9.49739
LeftShoulder1  0 -2.69403e-036 -1.28585e-037
LeftArm  -10.5862 -53.0491 -63.6269
LeftForeArm  -137.237 -50.7973 168.011
LeftHand  0.771081 6.39253 10.816
RightShoulder  -2.48481e-017 0 -8.08114e-019
RightArm  -1.17913 37.0407 66.7103
RightForeArm  -91.1645 47.1884 -153.462
RightHand  4.00989 -16.2981 -26.1544
LeftUpLeg  -53.183 -0.787687 13.2159
LeftLeg  133.933 -11.9488 -3.10124
LeftFoot  -31.9412 -0.151019 -0.344936
LeftToes  -3.29237e-010 -4.9359e-011 -7.59376e-011
188
root  46.3782 17.2878 1.00925 -117.316 76.982 -90.6461
RightUpLeg  -79.2565 -4.55298 14.5326
RightLeg  96.9794 11.4463 -1.84081
RightFoot  -19.9714 0.0539302 0.909026
RightToes  2.85217e-009 -3.18055e-015 8.94531e-016
Spine  63.4618 -2.71167 1.96103
Spine1  13.5874 0.127118 -1.83017
HEad  -22.5599 2.93059 9.6884
LeftShoulder1  0 -2.69403e-036 -1.28585e-037
LeftArm  -10.4421 -52.7203 -63.7981
LeftForeArm  -137.496 -50.8241 168.01
LeftHand  0.765927 6.36626 10.6803
RightShoulder  -2.48481e-017 0 -8.08114e-019
RightArm  -2.01445 36.9036 66.1742
RightForeArm  -90.8451 46.9808 -153.725
RightHand  3.87478 -16.0041 -25.8085
LeftUpLeg  -53.2709 -0.300794 13.3586
LeftLeg  138.448 -10.489 -4.23055
LeftFoot  -31.8431 -0.149707 -0.340438
LeftToes  -3.29237e-010 -4.9359e-011 -7.59376e-011
189
root  47.2072 16.3767 1.33536 -126.948 78.026 -99.8151
RightUpLeg  -79.5622 -4.80145 12.3122
RightLeg  97.6641 11.9358 -4.32016
RightFoot  -12.5067 0.00704993 0.738391
RightToes  2.85217e-009 -3.18055e-015 8.94531e-016
Spine  63.3489 -2.65322 1.52429
Spine1  13.1719 -0.117478 -1.63966
HEad  -23.155 2.35437 9.9185
LeftShoulder1  0 -2.69403e-036 -1.28585e-037
LeftArm  -10.3656 -52.5987 -64.1114
LeftForeArm  -138.149 -50.7075 168.15
LeftHand  0.787212 6.44921 10.4922
RightShoulder  -2.48481e-017 0 -8.08114e-019
RightArm  -3.0199 36.8579 65.446
RightForeArm  -90.2997 46.8921 -153.808
RightHand  3.82402 -15.9088 -25.6174
LeftUpLeg  -52.696 -0.655237 13.8983
LeftLeg  142.54 -8.12785 -5.68741
LeftFoot  -31.7024 -0.0792245 0.0946998
LeftToes  -3.29237e-010 -4.9359e-011 -7.59376e-011
